#!OML:ASF H:\Punching\Project 1\Capture day 1\Session 1\female.ASF
:FULLY-SPECIFIED
:DEGREES
2952
root 3.87426 14.4984 -0.491093 18.1159 17.2079 5.84161
lowerback -1.65805 -1.66742 -3.24997
upperback -7.70785 -2.15799 2.27416
thorax -6.91031 -0.772947 4.29469
lowerneck -14.9532 -0.6458 3.9999
upperneck 31.398 -0.200563 -5.59934
head 12.9419 -0.312178 -2.8974
rclavicle -3.35449e-014 -5.24792e-014
rhumerus 20.7924 7.09937 -54.9214
rradius 130.863
rwrist -19.0688
rhand -30.5523 8.71925
rfingers 7.12502
rthumb -3.85081 -21.2257
lclavicle -3.35449e-014 -5.24792e-014
lhumerus 13.4486 -24.5247 68.7998
lradius 135.84
lwrist 2.53015
lhand -22.6245 5.23267
lfingers 7.12502
lthumb 3.80571 35.1784
rfemur -58.6979 -18.485 8.39936
rtibia 57.6063
rfoot -8.09219 -10.6852
rtoes -11.3302
lfemur -3.35828 -14.2885 -19.3695
ltibia 22.6601
lfoot -213.982 207.05
ltoes -8.59683
2953
root 3.8862 14.507 -0.515632 18.1737 17.2733 5.95405
lowerback -1.77468 -1.58654 -3.35772
upperback -7.82547 -2.05683 2.10226
thorax -6.98283 -0.717434 4.1695
lowerneck -15.0029 -0.725748 3.95072
upperneck 31.5754 -0.369641 -5.37968
head 13.0177 -0.361381 -2.83461
rclavicle 5.93217e-014 -4.77083e-015
rhumerus 20.4884 7.20191 -55.4407
rradius 131.082
rwrist -18.8058
rhand -30.6196 8.9145
rfingers 7.12502
rthumb -3.91582 -21.0293
lclavicle 5.93217e-014 -4.77083e-015
lhumerus 13.459 -24.4543 68.7558
lradius 135.936
lwrist 2.46476
lhand -22.5266 5.41742
lfingers 7.12502
lthumb 3.90024 35.3615
rfemur -58.1684 -18.1832 8.10819
rtibia 57.5759
rfoot -8.36535 -10.8021
rtoes -10.9174
lfemur -3.51495 -14.4008 -19.5319
ltibia 22.6883
lfoot -213.913 207.124
ltoes -8.4018
2954
root 3.89712 14.5163 -0.535507 18.2004 17.3733 6.01065
lowerback -1.89336 -1.51542 -3.38841
upperback -7.93986 -1.96639 1.93677
thorax -7.05106 -0.672143 4.00794
lowerneck -15.0631 -0.803359 3.89381
upperneck 31.7695 -0.536724 -5.15127
head 13.1039 -0.409016 -2.76737
rclavicle -3.09731e-014 -3.18055e-015
rhumerus 20.1794 7.31772 -55.9832
rradius 131.31
rwrist -18.4329
rhand -30.7004 9.17217
rfingers 7.12502
rthumb -3.9938 -20.7701
lclavicle -3.09731e-014 -3.18055e-015
lhumerus 13.4681 -24.3782 68.732
lradius 136.002
lwrist 2.3569
lhand -22.4909 5.55433
lfingers 7.12502
lthumb 3.93474 35.4977
rfemur -57.5179 -17.7934 7.83175
rtibia 57.2919
rfoot -8.67599 -10.9891
rtoes -10.2694
lfemur -3.64278 -14.5005 -19.6213
ltibia 22.7154
lfoot -213.834 207.187
ltoes -8.23129
2955
root 3.90701 14.5264 -0.551095 18.1924 17.5047 6.00446
lowerback -2.00969 -1.4534 -3.33576
upperback -8.04914 -1.88582 1.78
thorax -7.11535 -0.637164 3.80907
lowerneck -15.125 -0.879627 3.82729
upperneck 31.9678 -0.703415 -4.91259
head 13.1936 -0.455856 -2.69437
rclavicle 9.405e-015 -2.70347e-014
rhumerus 19.8735 7.45049 -56.5411
rradius 131.541
rwrist -17.953
rhand -30.8217 9.45109
rfingers 7.12502
rthumb -4.111 -20.489
lclavicle 9.405e-015 -2.70347e-014
lhumerus 13.4788 -24.2981 68.7245
lradius 136.047
lwrist 2.24167
lhand -22.5002 5.62615
lfingers 7.12502
lthumb 3.92572 35.5697
rfemur -56.7587 -17.2925 7.55873
rtibia 56.7155
rfoot -8.98293 -11.3216
rtoes -9.29271
lfemur -3.74378 -14.5684 -19.6286
ltibia 22.7477
lfoot -213.743 207.215
ltoes -8.09613
2956
root 3.91582 14.5365 -0.563033 18.1492 17.6584 5.9375
lowerback -2.11439 -1.39666 -3.20899
upperback -8.15221 -1.81055 1.63452
thorax -7.17983 -0.609589 3.58101
lowerneck -15.2011 -0.954441 3.74476
upperneck 32.1755 -0.869468 -4.65933
head 13.292 -0.501998 -2.6131
rclavicle 8.87325e-014 -1.66979e-014
rhumerus 19.5671 7.59672 -57.106
rradius 131.77
rwrist -17.3942
rhand -30.9777 9.71454
rfingers 7.12502
rthumb -4.26157 -20.2226
lclavicle 8.87325e-014 -1.66979e-014
lhumerus 13.4917 -24.2287 68.7333
lradius 136.071
lwrist 2.12228
lhand -22.5884 5.64803
lfingers 7.12502
lthumb 3.8406 35.5932
rfemur -55.9309 -16.6872 7.29484
rtibia 55.8718
rfoot -9.19018 -11.8418
rtoes -7.93113
lfemur -3.82295 -14.5985 -19.5585
ltibia 22.7954
lfoot -213.647 207.205
ltoes -8.01494
2957
root 3.92339 14.5457 -0.572476 18.0708 17.828 5.81387
lowerback -2.20003 -1.3427 -3.01797
upperback -8.24572 -1.73783 1.49995
thorax -7.24511 -0.587577 3.32899
lowerneck -15.2993 -1.02799 3.65641
upperneck 32.3913 -1.03484 -4.40292
head 13.4 -0.547745 -2.5299
rclavicle 3.62782e-014 -3.18055e-015
rhumerus 19.2675 7.74782 -57.669
rradius 131.994
rwrist -16.8021
rhand -31.1607 9.93899
rfingers 7.12502
rthumb -4.43829 -19.9945
lclavicle 3.62782e-014 -3.18055e-015
lhumerus 13.5102 -24.1799 68.7574
lradius 136.08
lwrist 1.99666
lhand -22.7385 5.65223
lfingers 7.12502
lthumb 3.69566 35.5999
rfemur -55.0882 -16.0299 7.07965
rtibia 54.8475
rfoot -9.18686 -12.5551
rtoes -6.24974
lfemur -3.88768 -14.589 -19.4165
ltibia 22.8707
lfoot -213.564 207.149
ltoes -7.97197
2958
root 3.92957 14.5532 -0.580383 17.96 18.0039 5.65101
lowerback -2.26026 -1.29129 -2.78435
upperback -8.33199 -1.66817 1.37323
thorax -7.317 -0.570005 3.06219
lowerneck -15.3949 -1.09637 3.56564
upperneck 32.5964 -1.1939 -4.14431
head 13.5048 -0.590416 -2.44382
rclavicle -7.60351e-015 0
rhumerus 18.966 7.90412 -58.2236
rradius 132.208
rwrist -16.2302
rhand -31.3808 10.1282
rfingers 7.12502
rthumb -4.65089 -19.8007
lclavicle -7.60351e-015 0
lhumerus 13.518 -24.1421 68.8003
lradius 136.126
lwrist 1.94508
lhand -22.8678 5.67415
lfingers 7.12502
lthumb 3.57076 35.624
rfemur -54.2884 -15.3958 6.94596
rtibia 53.7708
rfoot -8.95055 -13.384
rtoes -4.53684
lfemur -3.93816 -14.5371 -19.2245
ltibia 22.974
lfoot -213.49 207.053
ltoes -7.98526
2959
root 3.93436 14.559 -0.587558 17.8219 18.1754 5.46355
lowerback -2.28944 -1.2399 -2.53107
upperback -8.4135 -1.59881 1.25301
thorax -7.40132 -0.553927 2.79212
lowerneck -15.4956 -1.16297 3.47391
upperneck 32.8029 -1.35045 -3.88835
head 13.6127 -0.632041 -2.35811
rclavicle -5.04416e-014 -3.97569e-015
rhumerus 18.6707 8.06252 -58.7577
rradius 132.41
rwrist -15.7367
rhand -31.6042 10.2524
rfingers 7.12502
rthumb -4.86656 -19.6717
lclavicle -5.04416e-014 -3.97569e-015
lhumerus 13.5089 -24.1271 68.865
lradius 136.201
lwrist 1.93645
lhand -23.0016 5.7218
lfingers 7.12502
lthumb 3.44158 35.6738
rfemur -53.5781 -14.8525 6.91608
rtibia 52.773
rfoot -8.53578 -14.2097
rtoes -3.15968
lfemur -3.97198 -14.4511 -19.0029
ltibia 23.0943
lfoot -213.427 206.927
ltoes -8.02899
2960
root 3.93781 14.5637 -0.594574 17.6637 18.3333 5.27796
lowerback -2.28743 -1.1902 -2.28849
upperback -8.48923 -1.53273 1.13477
thorax -7.49645 -0.53907 2.531
lowerneck -15.5829 -1.22362 3.39216
upperneck 32.9943 -1.49668 -3.6481
head 13.7127 -0.669844 -2.27787
rclavicle 1.41386e-014 -2.54444e-014
rhumerus 18.3833 8.22309 -59.2661
rradius 132.597
rwrist -15.3632
rhand -31.8228 10.3446
rfingers 7.12502
rthumb -5.07762 -19.5745
lclavicle 1.41386e-014 -2.54444e-014
lhumerus 13.482 -24.1312 68.9514
lradius 136.306
lwrist 1.96039
lhand -23.1274 5.80549
lfingers 7.12502
lthumb 3.32008 35.7594
rfemur -52.982 -14.443 6.97073
rtibia 51.9561
rfoot -8.0639 -14.9101
rtoes -2.26906
lfemur -3.97939 -14.3321 -18.7835
ltibia 23.21
lfoot -213.382 206.769
ltoes -8.04906
2961
root 3.94005 14.5679 -0.601879 17.4944 18.4664 5.11343
lowerback -2.25664 -1.14111 -2.07513
upperback -8.55823 -1.46903 1.01315
thorax -7.59991 -0.523997 2.2833
lowerneck -15.6594 -1.27912 3.31648
upperneck 33.1693 -1.63446 -3.41798
head 13.8043 -0.704501 -2.20051
rclavicle 8.69683e-015 2.14687e-014
rhumerus 18.1168 8.38521 -59.7457
rradius 132.759
rwrist -15.1356
rhand -32.0337 10.4145
rfingers 7.12502
rthumb -5.2813 -19.4997
lclavicle 8.69683e-015 2.14687e-014
lhumerus 13.444 -24.1572 69.054
lradius 136.418
lwrist 1.97258
lhand -23.2721 5.8739
lfingers 7.12502
lthumb 3.18037 35.8299
rfemur -52.5114 -14.1594 7.06566
rtibia 51.3645
rfoot -7.6503 -15.4297
rtoes -1.95008
lfemur -3.95646 -14.1811 -18.5907
ltibia 23.3022
lfoot -213.339 206.59
ltoes -8.03779
